# AST/ASF file generated using VICON BodyLanguage
# -----------------------------------------------
:version 1.10
:name VICON
:units
  mass 1.0
  length 0.45
  angle deg
:documentation
   .ast/.asf automatically generated from VICON data using
   VICON BodyBuilder and BodyLanguage model FoxedUp or BRILLIANT.MOD
:root
   order TX TY TZ RX RY RZ
   axis XYZ
   position 0 0 0  
   orientation 0 0 0 
:bonedata
  begin
     id 1 
     name lhipjoint
     direction 0.645893 -0.654526 0.392961 
     length 2.38111 
     axis 0 0 0  XYZ
  end
  begin
     id 2 
     name lfemur
     direction 0.34202 -0.939693 0  
     length 6.6822  
     axis 0 0 20  XYZ
    dof rx ry rz
    limits (-160.0 20.0)
           (-70.0 70.0)
           (-60.0 70.0)
  end
  begin
     id 3 
     name ltibia
     direction 0.34202 -0.939693 0   
     length 6.93904   
     axis 0 0 20   XYZ
    dof rx
    limits (-10.0 170.0)
  end
  begin
     id 4 
     name lfoot
     direction 0.0694967 -0.190941 0.979138   
     length 2.13616   
     axis -90 7.62852e-016 20   XYZ
    dof rx rz
    limits (-45.0 90.0)
           (-70.0 20.0)
  end
  begin
     id 5 
     name ltoes
     direction 1.535e-011 -4.2202e-011 1   
     length 1.07536   
     axis -90 7.62852e-016 20   XYZ
    dof rx
    limits (-90.0 20.0)
  end
  begin
     id 6 
     name rhipjoint
     direction -0.700219 -0.612087 0.367481   
     length 2.54621  
     axis 0 0 0  XYZ 
  end
  begin
     id 7 
     name rfemur
     direction -0.34202 -0.939693 0   
     length 6.55353   
     axis 0 0 -20   XYZ
    dof rx ry rz
    limits (-160.0 20.0)
           (-70.0 70.0)
           (-70.0 60.0)
  end
  begin
     id 8 
     name rtibia
     direction -0.34202 -0.939693 0   
     length 6.8736   
     axis 0 0 -20   XYZ
    dof rx
    limits (-10.0 170.0)
 end
 begin
     id 9 
     name rfoot
     direction -0.0679995 -0.186827 0.980037   
     length 2.1218  
     axis -90 -7.62852e-016 -20   XYZ
    dof rx rz
    limits (-45.0 90.0)
           (-20.0 70.0)
  end
  begin
     id 10 
     name rtoes
     direction -1.53589e-011 -4.21772e-011 1   
     length 1.06864   
     axis -90 -7.62852e-016 -20   XYZ
    dof rx
    limits (-90.0 20.0)
  end
  begin
     id 11 
     name lowerback
     direction -0.0416607 0.996347 -0.0745409   
     length 2.12205   
     axis 0 0 0   XYZ
    dof rx ry rz
    limits (-20.0 45.0)
           (-30.0 30.0)
           (-30.0 30.0)
  end
  begin
     id 12 
     name upperback
     direction -0.000153993 0.999276 -0.0380568   
     length 2.12759   
     axis 0 0 0   XYZ
    dof rx ry rz
    limits (-20.0 45.0)
           (-30.0 30.0)
           (-30.0 30.0)
  end
  begin
     id 13 
     name thorax
     direction 0.0187671 0.999821 -0.00241421   
     length 2.13704   
     axis 0 0 0   XYZ
    dof rx ry rz
    limits (-20.0 45.0)
           (-30.0 30.0)
           (-30.0 30.0)
  end
  begin
     id 14 
     name lowerneck
     direction 0.0268157 0.964865 0.261374   
     length 1.65253   
     axis 0 0 0   XYZ
    dof rx ry rz
    limits (-20.0 45.0)
           (-30.0 30.0)
           (-30.0 30.0)
  end
  begin
     id 15 
     name upperneck
     direction 0.00263774 0.939908 -0.341418   
     length 1.72375   
     axis 0 0 0   XYZ
    dof rx ry rz
    limits (-20.0 45.0)
           (-30.0 30.0)
           (-30.0 30.0)
  end
  begin
     id 16
     name head
     direction -0.00526001 0.989001 -0.147818  
     length 1.74878  
     axis 0 0 0   XYZ
    dof rx ry rz
    limits (-20.0 45.0)
           (-30.0 30.0)
           (-30.0 30.0)
  end
  begin
     id 17 
     name lclavicle
     direction 0.881214 0.461162 -0.103884  
     length 3.25108  
     axis 0 0 0   XYZ
    dof ry rz
    limits (-20.0 10.0)
           (0.0 20.0)
  end
  begin
     id 18 
     name lhumerus
     direction 1 -4.4899e-011 3.38092e-027   
     length 4.87408   
     axis 180 -30 -90   XYZ
    dof rx ry rz
    limits (-60.0 90.0)
           (-90.0 90.0)
           (-90.0 90.0)
  end
  begin
     id 19
     name lradius
     direction 1 -4.48931e-011 9.96288e-027   
     length 2.76729   
     axis 180 -30 -90   XYZ
    dof rx
    limits (-10.0 170.0)
  end
  begin
     id 20
     name lwrist
     direction 1 -4.4896e-011 1.50617e-026   
     length 1.38364   
     axis -9.31234e-015 90 90   XYZ
    dof ry
    limits (-180.0 0.0)
 end
  begin
     id 21 
     name lhand
     direction 1 -4.49038e-011 3.01286e-026   
     length 0.98922   
     axis -1.92217e-014 90 90   XYZ
    dof rx rz
    limits (-90.0 90.0)
           (-45.0 45.0)
  end
  begin
     id 22 
     name lfingers
     direction 1 -4.49051e-011 6.02588e-026   
     length 0.797535   
     axis -3.84436e-014 90 90   XYZ
    dof rx
    limits (0.0 90.0)
  end
  begin
     id 23
     name lthumb
     direction 0.707107 -6.34901e-011 0.707107   
     length 1.14511   
     axis -90 45 2.19363e-014   XYZ
    dof rx rz
    limits (-45.0 45.0)
           (-45.0 45.0)
  end
  begin
     id 24 
     name rclavicle
     direction -0.893894 0.441652 -0.0767889   
     length 3.29361  
     axis 0 0 0   XYZ 
    dof ry rz
    limits (-10.0 20.0)
           (-20.0 0.0)
  end
  begin
     id 25 
     name rhumerus
     direction -1 -4.48945e-011 8.0491e-028  
     length 4.71404   
     axis 180 30 90   XYZ
    dof rx ry rz
    limits (-90.0 60.0)
           (-90.0 90.0)
           (-90.0 90.0)
  end
  begin
     id 26 
     name rradius
     direction -1 -4.48986e-011 9.27795e-027   
     length 2.83468   
     axis 180 30 90   XYZ
    dof rx
    limits (-10.0 170.0)
  end
  begin
     id 27 
     name rwrist
     direction -1 -4.49029e-011 1.5064e-026   
     length 1.41734   
     axis -9.31234e-015 -90 -90   XYZ
    dof ry
    limits (-180.0 0.0)
  end
  begin
     id 28
     name rhand
     direction -1 -4.48857e-011 3.01165e-026   
     length 0.868195   
     axis -1.92217e-014 -90 -90   XYZ
    dof rx rz
    limits (-90.0 90.0)
           (-45.0 45.0)
  end
  begin
     id 29
     name rfingers
     direction -1 -4.49048e-011 6.02585e-026   
     length 0.699961   
     axis -3.84436e-014 -90 -90   XYZ
    dof rx
    limits (0.0 90.0)
  end
  begin
     id 30
     name rthumb
     direction -0.707107 -6.34854e-011 0.707107   
     length 1.00501   
     axis -90 -45 -2.19363e-014   XYZ
    dof rx rz
    limits (-45.0 45.0)
           (-45.0 45.0)
  end
:hierarchy
  begin
    root lhipjoint rhipjoint lowerback
    lhipjoint lfemur
    lfemur ltibia
    ltibia lfoot
    lfoot ltoes
    rhipjoint rfemur
    rfemur rtibia
    rtibia rfoot
    rfoot rtoes
    lowerback upperback
    upperback thorax
    thorax lowerneck lclavicle rclavicle
    lowerneck upperneck
    upperneck head
    lclavicle lhumerus
    lhumerus lradius
    lradius lwrist
    lwrist lhand lthumb
    lhand lfingers
    rclavicle rhumerus
    rhumerus rradius
    rradius rwrist
    rwrist rhand rthumb
    rhand rfingers
  end

#!OML:ASF H:\ManfredObstacles\Project 1\Capture day 2\Session 1\male.ASF
:FULLY-SPECIFIED
:DEGREES
142
root 1.22567 15.5647 0.91758 -168.016 -0.894868 -182.84
lowerback -1.59508 4.66715 -4.18301
upperback 1.31312 6.28467 -2.72173
thorax 2.09899 3.04794 -0.26736
lowerneck -33.7352 -2.98012 -2.7928
upperneck 39.3689 -7.4424 4.3135
head 22.3628 -3.07715 0.450541
rclavicle 8.46326e-014 -1.92821e-014
rhumerus -40.6531 18.0029 -95.9781
rradius 100.486
rwrist 8.02325
rhand -13.6638 -3.50722
rfingers 7.12502
rthumb 12.4533 -33.1162
lclavicle 8.46326e-014 -1.92821e-014
lhumerus -65.1924 -30.0518 94.6496
lradius 100.057
lwrist -18.0569
lhand -18.2355 7.05963
lfingers 7.12502
lthumb 8.04303 36.8866
rfemur -0.0965384 -0.720434 20.7621
rtibia 51.131
rfoot 18.9756 -17.6008
rtoes -14.9829
lfemur -31.9483 -6.81445 -24.6577
ltibia 46.546
lfoot -1.75601 18.5665
ltoes -13.3508
143
root 1.21588 15.4648 0.669606 -168.517 -0.606399 -183.472
lowerback -1.16206 4.61803 -4.87383
upperback 1.56645 6.19246 -2.86154
thorax 2.06325 2.97755 -0.063345
lowerneck -33.8202 -2.96595 -2.675
upperneck 38.9907 -7.34307 4.29948
head 22.0984 -3.00422 0.457634
rclavicle -1.37658e-014 -2.98177e-014
rhumerus -41.2573 16.9768 -96.2965
rradius 99.4434
rwrist 8.41523
rhand -14.0673 -3.92009
rfingers 7.12502
rthumb 12.0642 -33.5523
lclavicle -1.37658e-014 -2.98177e-014
lhumerus -63.6038 -29.721 94.8536
lradius 99.1916
lwrist -17.8976
lhand -18.544 7.2909
lfingers 7.12502
lthumb 7.74531 37.1291
rfemur -1.18592 -0.810566 19.8141
rtibia 54.2377
rfoot 17.4725 -17.6223
rtoes -15.638
lfemur -30.6944 -6.43451 -25.7042
ltibia 47.4764
lfoot -2.57802 19.7466
ltoes -13.8332
144
root 1.2085 15.3749 0.425164 -168.987 -0.269745 -184.191
lowerback -0.715275 4.579 -5.67329
upperback 1.80752 6.10101 -3.0332
thorax 2.00159 2.90216 0.165446
lowerneck -33.9361 -2.9484 -2.54011
upperneck 38.6179 -7.25277 4.28478
head 21.8516 -2.93162 0.458062
rclavicle 1.24737e-014 -3.18055e-014
rhumerus -41.9024 15.842 -96.5549
rradius 98.1969
rwrist 8.89559
rhand -14.4671 -4.52347
rfingers 7.12502
rthumb 11.6787 -34.178
lclavicle 1.24737e-014 -3.18055e-014
lhumerus -61.8739 -29.3672 95.0938
lradius 98.1753
lwrist -17.6637
lhand -18.8371 7.64467
lfingers 7.12502
lthumb 7.46242 37.493
rfemur -2.45201 -0.882366 18.7568
rtibia 57.3609
rfoot 15.8924 -17.6775
rtoes -16.3343
lfemur -29.3587 -6.03906 -26.7894
ltibia 48.1303
lfoot -3.25003 20.759
ltoes -14.3479
145
root 1.20282 15.2955 0.184339 -169.38 0.0724551 -184.944
lowerback -0.312159 4.53893 -6.51696
upperback 2.02006 5.99902 -3.22573
thorax 1.93578 2.81799 0.399149
lowerneck -34.0532 -2.92556 -2.39715
upperneck 38.2559 -7.17841 4.28884
head 21.6196 -2.8624 0.461686
rclavicle 8.74653e-015 -2.48481e-014
rhumerus -42.5957 14.6211 -96.7325
rradius 96.7564
rwrist 9.49357
rhand -14.8233 -5.32719
rfingers 7.12502
rthumb 11.3352 -35.0009
lclavicle 8.74653e-015 -2.48481e-014
lhumerus -60.0378 -28.9998 95.3509
lradius 97.0762
lwrist -17.4313
lhand -19.0569 8.10289
lfingers 7.12502
lthumb 7.25024 37.9587
rfemur -3.92759 -0.957947 17.6634
rtibia 60.4482
rfoot 14.2511 -17.8288
rtoes -17.048
lfemur -28.0235 -5.66553 -27.8512
ltibia 48.5647
lfoot -3.80771 21.6127
ltoes -14.9
146
root 1.19734 15.2277 -0.0524076 -169.635 0.363633 -185.64
lowerback -0.015074 4.47089 -7.28834
upperback 2.18975 5.86044 -3.4203
thorax 1.89737 2.71593 0.598704
lowerneck -34.195 -2.9 -2.26242
upperneck 37.9271 -7.1301 4.33356
head 21.4269 -2.7994 0.479244
rclavicle -6.41081e-014 2.40529e-014
rhumerus -43.3379 13.3452 -96.8144
rradius 95.1603
rwrist 10.1906
rhand -15.0843 -6.27595
rfingers 7.12502
rthumb 11.0834 -35.9633
lclavicle -6.41081e-014 2.40529e-014
lhumerus -58.1299 -28.6171 95.611
lradius 96.0017
lwrist -17.241
lhand -19.1458 8.71445
lfingers 7.12502
lthumb 7.16437 38.5732
rfemur -5.66739 -1.06745 16.6525
rtibia 63.4473
rfoot 12.5928 -18.0983
rtoes -17.7783
lfemur -26.8089 -5.36052 -28.792
ltibia 48.8503
lfoot -4.28739 22.3054
ltoes -15.4516
147
root 1.19149 15.1724 -0.286667 -169.733 0.58077 -186.188
lowerback 0.139813 3.96476 -7.89374
upperback 2.28287 5.76593 -3.60708
thorax 1.90999 2.90381 0.741418
lowerneck -34.3127 -2.86912 -2.11747
upperneck 37.6162 -7.10927 4.40803
head 21.2465 -2.74374 0.501742
rclavicle -4.1546e-014 3.89618e-014
rhumerus -44.1616 12.064 -96.8137
rradius 93.4745
rwrist 10.824
rhand -15.265 -7.27157
rfingers 7.12502
rthumb 10.9092 -36.9682
lclavicle -4.1546e-014 3.89618e-014
lhumerus -56.2131 -28.2119 95.8659
lradius 95.0544
lwrist -17.1487
lhand -19.107 9.4157
lfingers 7.12502
lthumb 7.20189 39.2732
rfemur -7.6477 -1.2058 15.8424
rtibia 66.2939
rfoot 10.9413 -18.5118
rtoes -18.4298
lfemur -25.7467 -5.11613 -29.5265
ltibia 49.0415
lfoot -4.70917 22.8415
ltoes -16.0134
148
root 1.1852 15.1291 -0.519256 -169.69 0.709448 -186.54
lowerback 0.16941 3.75856 -8.28848
upperback 2.35865 5.52695 -3.73171
thorax 1.96962 2.78594 0.829706
lowerneck -34.4147 -2.83405 -1.99747
upperneck 37.3301 -7.10579 4.53142
head 21.0874 -2.69411 0.547614
rclavicle -4.36332e-014 -4.77083e-015
rhumerus -45.0656 10.8718 -96.7175
rradius 91.7589
rwrist 11.2677
rhand -15.4024 -8.11664
rfingers 7.12502
rthumb 10.7766 -37.8202
lclavicle -4.36332e-014 -4.77083e-015
lhumerus -54.3128 -27.7468 96.1136
lradius 94.3154
lwrist -17.1008
lhand -18.983 10.1044
lfingers 7.12502
lthumb 7.32151 39.9578
rfemur -9.82169 -1.36824 15.3011
rtibia 68.9385
rfoot 9.33286 -19.0704
rtoes -18.7705
lfemur -24.8255 -4.93131 -30.0125
ltibia 49.168
lfoot -5.06405 23.2311
ltoes -16.5838
149
root 1.17798 15.0982 -0.751646 -169.526 0.744991 -186.702
lowerback 0.0858107 3.50243 -8.46813
upperback 2.39745 5.21644 -3.80856
thorax 2.07381 2.62991 0.85746
lowerneck -34.4708 -2.78835 -1.89392
upperneck 37.0635 -7.10951 4.69317
head 20.9358 -2.64817 0.612724
rclavicle 6.17226e-014 -3.57812e-015
rhumerus -46.0929 9.80411 -96.5461
rradius 90.1184
rwrist 11.3862
rhand -15.5053 -8.66611
rfingers 7.12502
rthumb 10.6774 -38.3748
lclavicle 6.17226e-014 -3.57812e-015
lhumerus -52.4939 -27.2277 96.3642
lradius 93.8482
lwrist -17.0504
lhand -18.8633 10.6602
lfingers 7.12502
lthumb 7.43709 40.5095
rfemur -12.142 -1.55452 15.0213
rtibia 71.3354
rfoot 7.80675 -19.7218
rtoes -18.8633
lfemur -24.0076 -4.80143 -30.2685
ltibia 49.2202
lfoot -5.2976 23.4834
ltoes -17.1895
150
root 1.17122 15.0796 -0.984308 -169.288 0.70383 -186.725
lowerback -0.0461069 3.20341 -8.50362
upperback 2.40375 4.8386 -3.83573
thorax 2.18283 2.43867 0.858595
lowerneck -34.4794 -2.72873 -1.81608
upperneck 36.8416 -7.10745 4.87665
head 20.8055 -2.60563 0.693446
rclavicle 3.99557e-014 -2.78299e-014
rhumerus -47.265 8.90349 -96.3124
rradius 88.6414
rwrist 10.978
rhand -15.6651 -8.81138
rfingers 7.12502
rthumb 10.5232 -38.528
lclavicle 3.99557e-014 -2.78299e-014
lhumerus -50.7812 -26.652 96.6433
lradius 93.6513
lwrist -16.9903
lhand -18.8008 10.9945
lfingers 7.12502
lthumb 7.49741 40.8416
rfemur -14.534 -1.74744 14.9487
rtibia 73.4591
rfoot 6.36241 -20.4354
rtoes -18.6524
lfemur -23.2231 -4.71333 -30.35
ltibia 49.1678
lfoot -5.38205 23.5903
ltoes -17.7778
151
root 1.16488 15.0736 -1.21874 -169.036 0.584572 -186.679
lowerback -0.172697 3.30875 -8.45948
upperback 2.43219 4.29284 -3.80688
thorax 2.28133 1.8642 0.852307
lowerneck -34.4767 -2.65517 -1.78456
upperneck 36.6744 -7.08132 5.07608
head 20.711 -2.56165 0.795552
rclavicle 2.40529e-014 -4.33351e-014
rhumerus -48.5724 8.20319 -96.0274
rradius 87.3866
rwrist 10.0699
rhand -15.8941 -8.5357
rfingers 7.12502
rthumb 10.3023 -38.2634
lclavicle 2.40529e-014 -4.33351e-014
lhumerus -49.1658 -26.0252 96.9533
lradius 93.7016
lwrist -16.9407
lhand -18.8123 11.0429
lfingers 7.12502
lthumb 7.48632 40.8904
rfemur -16.9142 -1.95775 14.9923
rtibia 75.2856
rfoot 4.97936 -21.1615
rtoes -18.2874
lfemur -22.3785 -4.68126 -30.339
ltibia 48.9637
lfoot -5.28378 23.548
ltoes -18.3148
152
root 1.16032 15.0807 -1.455 -168.788 0.418961 -186.632
lowerback -0.267332 2.92706 -8.42845
upperback 2.42247 3.79801 -3.76496
thorax 2.36077 1.61769 0.880126
lowerneck -34.4854 -2.57151 -1.77451
upperneck 36.5413 -7.01207 5.23339
head 20.6366 -2.51144 0.891236
rclavicle -1.77912e-014 3.61788e-014
rhumerus -50.0001 7.68592 -95.692
rradius 86.4076
rwrist 8.81158
rhand -16.1494 -7.98957
rfingers 7.12502
rthumb 10.056 -37.7293
lclavicle -1.77912e-014 3.61788e-014
lhumerus -47.6343 -25.3844 97.2998
lradius 93.9647
lwrist -16.9482
lhand -18.8509 10.8803
lfingers 7.12502
lthumb 7.44905 40.7291
rfemur -19.2575 -2.16463 15.0684
rtibia 76.8081
rfoot 3.64534 -21.8598
rtoes -17.9558
lfemur -21.4526 -4.70864 -30.309
ltibia 48.5815
lfoot -5.04246 23.3274
ltoes -18.7263
153
root 1.15792 15.101 -1.69436 -168.587 0.21242 -186.639
lowerback -0.288197 2.5156 -8.47726
upperback 2.4091 3.25464 -3.69611
thorax 2.39326 1.34673 0.973121
lowerneck -34.4785 -2.46113 -1.76619
upperneck 36.4514 -6.87383 5.31689
head 20.5753 -2.44839 0.968525
rclavicle -1.6201e-014 6.36111e-015
rhumerus -51.5395 7.35157 -95.3104
rradius 85.6909
rwrist 7.48789
rhand -16.3636 -7.32435
rfingers 7.12502
rthumb 9.84938 -37.074
lclavicle -1.6201e-014 6.36111e-015
lhumerus -46.2037 -24.7308 97.6863
lradius 94.4016
lwrist -17.0897
lhand -18.8808 10.5352
lfingers 7.12502
lthumb 7.42016 40.3851
rfemur -21.4961 -2.36976 15.1062
rtibia 78.0098
rfoot 2.36233 -22.4918
rtoes -17.7381
lfemur -20.3875 -4.80203 -30.3234
ltibia 48.0029
lfoot -4.67177 22.9177
ltoes -18.9795
154
root 1.15761 15.1338 -1.93501 -168.42 -0.0534567 -186.694
lowerback -0.227344 2.07553 -8.58326
upperback 2.39248 2.6635 -3.60301
thorax 2.379 1.05239 1.11773
lowerneck -34.4908 -2.33242 -1.75939
upperneck 36.406 -6.67024 5.3146
head 20.5362 -2.37357 1.02073
rclavicle 0 -5.56597e-015
rhumerus -53.1335 7.15226 -94.8687
rradius 85.2071
rwrist 6.41555
rhand -16.4799 -6.74288
rfingers 7.12502
rthumb 9.73717 -36.4978
lclavicle 0 -5.56597e-015
lhumerus -44.8468 -24.1226 98.0939
lradius 94.9723
lwrist -17.3949
lhand -18.8651 10.0878
lfingers 7.12502
lthumb 7.43534 39.9371
rfemur -23.6462 -2.58279 15.1156
rtibia 78.8885
rfoot 1.14646 -23.039
rtoes -17.7035
lfemur -19.2259 -4.99082 -30.3708
ltibia 47.2418
lfoot -4.15585 22.302
ltoes -19.1202
155
root 1.15939 15.179 -2.17882 -168.287 -0.359973 -186.762
lowerback -0.101794 1.61534 -8.71308
upperback 2.3653 2.03854 -3.47987
thorax 2.32263 0.743125 1.30432
lowerneck -34.4818 -2.16727 -1.70226
upperneck 36.3858 -6.38469 5.19033
head 20.4908 -2.27984 1.0252
rclavicle 1.05356e-014 6.36111e-015
rhumerus -54.769 7.05147 -94.3771
rradius 84.9033
rwrist 5.74892
rhand -16.5217 -6.29062
rfingers 7.12502
rthumb 9.6968 -36.0474
lclavicle 1.05356e-014 6.36111e-015
lhumerus -43.5666 -23.5865 98.5046
lradius 95.6321
lwrist -17.843
lhand -18.784 9.57774
lfingers 7.12502
lthumb 7.51363 39.4243
rfemur -25.677 -2.764 15.131
rtibia 79.4178
rfoot 0.0603552 -23.4862
rtoes -17.8751
lfemur -17.9678 -5.24327 -30.4214
ltibia 46.3113
lfoot -3.49963 21.4926
ltoes -19.1862
